<?xml version="1.0" encoding="utf-8"?>
<!-- Generator: Adobe Illustrator 21.0.0, SVG Export Plug-In . SVG Version: 6.00 Build 0)  -->
<svg version="1.1" id="图层_1" xmlns="http://www.w3.org/2000/svg" xmlns:xlink="http://www.w3.org/1999/xlink" x="0px" y="0px"
	 viewBox="0 0 34 34" style="enable-background:new 0 0 34 34;" xml:space="preserve">
<style type="text/css">
	.st0{opacity:0.7;fill:#091426;enable-background:new    ;}
	.st1{fill:#FFFFFF;}
</style>
<g id="图层_1_1_">
	<path class="st0" d="M32.4,34H1.7C0.8,34,0,33.3,0,32.4V1.7C0,0.7,0.8,0,1.7,0h30.7C33.3,0,34,0.7,34,1.7v30.7
		C34,33.3,33.3,34,32.4,34z"/>
</g>
<g id="图层_2">
	<g>
		<g>
			<g>
				<g>
					<path class="st1" d="M28.7,17.3h-1.2c-0.1,0-0.2-0.1-0.2-0.2s0.1-0.2,0.2-0.2h1.2c0.1,0,0.2,0.1,0.2,0.2S28.8,17.3,28.7,17.3z"
						/>
				</g>
				<g>
					<path class="st1" d="M28.7,17.3h-1.2c-0.1,0-0.2-0.1-0.2-0.2s0.1-0.2,0.2-0.2h1.2c0.1,0,0.2,0.1,0.2,0.2S28.8,17.3,28.7,17.3z"
						/>
				</g>
			</g>
		</g>
		<g>
			<g>
				<g>
					<path class="st1" d="M6.6,17.3H5.4c-0.1,0-0.2-0.1-0.2-0.2s0.1-0.2,0.2-0.2h1.2c0.1,0,0.2,0.1,0.2,0.2S6.7,17.3,6.6,17.3z"/>
				</g>
				<g>
					<path class="st1" d="M6.6,17.3H5.4c-0.1,0-0.2-0.1-0.2-0.2s0.1-0.2,0.2-0.2h1.2c0.1,0,0.2,0.1,0.2,0.2S6.7,17.3,6.6,17.3z"/>
				</g>
			</g>
		</g>
	</g>
	<g>
		<g>
			<g>
				<g>
					<path class="st1" d="M16.9,28.8v-1.2c0-0.1,0.1-0.2,0.2-0.2s0.2,0.1,0.2,0.2v1.2c0,0.1-0.1,0.2-0.2,0.2S16.9,28.9,16.9,28.8z"
						/>
				</g>
				<g>
					<path class="st1" d="M16.9,28.8v-1.2c0-0.1,0.1-0.2,0.2-0.2s0.2,0.1,0.2,0.2v1.2c0,0.1-0.1,0.2-0.2,0.2S16.9,28.9,16.9,28.8z"
						/>
				</g>
			</g>
		</g>
		<g>
			<g>
				<g>
					<path class="st1" d="M16.9,6.6V5.4c0-0.1,0.1-0.2,0.2-0.2s0.2,0.1,0.2,0.2v1.2c0,0.1-0.1,0.2-0.2,0.2S16.9,6.7,16.9,6.6z"/>
				</g>
				<g>
					<path class="st1" d="M16.9,6.6V5.4c0-0.1,0.1-0.2,0.2-0.2s0.2,0.1,0.2,0.2v1.2c0,0.1-0.1,0.2-0.2,0.2S16.9,6.7,16.9,6.6z"/>
				</g>
			</g>
		</g>
	</g>
	<g>
		<path class="st1" d="M17,29c-6.6,0-11.9-5.3-11.9-11.9S10.4,5.2,17,5.2s11.9,5.3,11.9,11.9C28.9,23.6,23.6,29,17,29z M17,5.8
			c-6.2,0-11.3,5.1-11.3,11.3S10.8,28.4,17,28.4s11.3-5.1,11.3-11.3S23.3,5.8,17,5.8z"/>
	</g>
</g>
</svg>
