<?xml version="1.0" encoding="utf-8"?>
<!-- Generator: Adobe Illustrator 21.0.0, SVG Export Plug-In . SVG Version: 6.00 Build 0)  -->
<svg version="1.1" id="图层_1" xmlns="http://www.w3.org/2000/svg" xmlns:xlink="http://www.w3.org/1999/xlink" x="0px" y="0px"
	 viewBox="0 0 34 34" style="enable-background:new 0 0 34 34;" xml:space="preserve">
<style type="text/css">
	.st0{opacity:0.7;fill:#091426;enable-background:new    ;}
	.st1{clip-path:url(#SVGID_2_);fill:#FFFFFF;}
	.st2{clip-path:url(#SVGID_4_);fill:#FFFFFF;}
	.st3{clip-path:url(#SVGID_6_);fill:#FFFFFF;}
	.st4{fill:#FFFFFF;}
</style>
<g id="图层_1_1_">
	<path class="st0" d="M32.4,34H1.7C0.8,34,0,33.3,0,32.4V1.7C0,0.7,0.8,0,1.7,0h30.7C33.3,0,34,0.7,34,1.7v30.7
		C34,33.3,33.3,34,32.4,34z"/>
</g>
<g id="图层_2">
	<g>
		<g>
			<g>
				<defs>
					<rect id="SVGID_1_" x="9" y="9" width="16" height="16"/>
				</defs>
				<clipPath id="SVGID_2_">
					<use xlink:href="#SVGID_1_"  style="overflow:visible;"/>
				</clipPath>
				<path class="st1" d="M9,9.8v4.8c0,0.3,0.3,0.6,0.6,0.6s0.6-0.3,0.6-0.6v-3.5l3.9,3.9c0.2,0.2,0.6,0.2,0.8,0s0.2-0.6,0-0.8
					L11,10.3h3.5c0.3,0,0.6-0.3,0.6-0.6s-0.3-0.6-0.6-0.6H9.7C9.3,9.1,9,9.3,9,9.8L9,9.8z"/>
			</g>
			<g>
				<defs>
					<rect id="SVGID_3_" x="9" y="9" width="16" height="16"/>
				</defs>
				<clipPath id="SVGID_4_">
					<use xlink:href="#SVGID_3_"  style="overflow:visible;"/>
				</clipPath>
				<path class="st2" d="M24.3,9.1h-4.8c-0.3,0-0.6,0.3-0.6,0.6s0.3,0.6,0.6,0.6H23l-4,3.9c-0.2,0.2-0.2,0.6,0,0.8s0.6,0.2,0.8,0
					l3.9-3.9v3.5c0,0.3,0.3,0.6,0.6,0.6c0.3,0,0.6-0.3,0.6-0.6V9.8C25,9.3,24.7,9.1,24.3,9.1L24.3,9.1z"/>
			</g>
			<g>
				<defs>
					<rect id="SVGID_5_" x="9" y="9" width="16" height="16"/>
				</defs>
				<clipPath id="SVGID_6_">
					<use xlink:href="#SVGID_5_"  style="overflow:visible;"/>
				</clipPath>
				<path class="st3" d="M9.7,25h4.8c0.3,0,0.6-0.3,0.6-0.6c0-0.3-0.3-0.6-0.6-0.6H11l3.9-3.9c0.2-0.2,0.2-0.6,0-0.8
					c-0.2-0.2-0.6-0.2-0.8,0L10.2,23v-3.5c0-0.3-0.3-0.6-0.6-0.6S9,19.2,9,19.5v4.8C9,24.8,9.3,25,9.7,25L9.7,25z"/>
			</g>
		</g>
		<path class="st4" d="M25,24.2v-4.8c0-0.3-0.3-0.6-0.6-0.6c-0.3,0-0.6,0.3-0.6,0.6v3.5L19.9,19c-0.2-0.2-0.6-0.2-0.8,0
			c-0.2,0.2-0.2,0.6,0,0.8l3.9,3.9h-3.5c-0.3,0-0.6,0.3-0.6,0.6c0,0.3,0.3,0.6,0.6,0.6h4.8C24.7,24.9,25,24.6,25,24.2L25,24.2z"/>
	</g>
</g>
</svg>
