{
    "asset" : {
        "generator" : "Khronos glTF Blender I/O v1.8.19",
        "version" : "2.0"
    },
    "scene" : 0,
    "scenes" : [
        {
            "name" : "Scene",
            "nodes" : [
                0
            ]
        }
    ],
    "nodes" : [
        {
            "mesh" : 0,
            "name" : "\u9600\u95e833"
        }
    ],
    "materials" : [
        {
            "doubleSided" : true,
            "name" : "Mat3d66-1687609-2-1541",
            "pbrMetallicRoughness" : {
                "baseColorFactor" : [
                    0.3999999761581421,
                    0.3999999761581421,
                    0.35921579599380493,
                    1
                ],
                "metallicFactor" : 0.07086614519357681,
                "roughnessFactor" : 0.586614191532135
            }
        },
        {
            "doubleSided" : true,
            "name" : "Mat3d66-1687609-3-2150",
            "pbrMetallicRoughness" : {
                "baseColorFactor" : [
                    1,
                    0.3294120132923126,
                    0,
                    1
                ],
                "metallicFactor" : 0,
                "roughnessFactor" : 0.5
            }
        },
        {
            "doubleSided" : true,
            "name" : "Mat3d66-1687609-4-4323",
            "pbrMetallicRoughness" : {
                "baseColorFactor" : [
                    0.44467800855636597,
                    0.44467800855636597,
                    0.408623069524765,
                    1
                ],
                "metallicFactor" : 0,
                "roughnessFactor" : 0.5551180839538574
            }
        },
        {
            "doubleSided" : true,
            "name" : "Mat3d66-1687609-1-5739",
            "pbrMetallicRoughness" : {
                "baseColorFactor" : [
                    0.3001404106616974,
                    0.3001404106616974,
                    0.2745186686515808,
                    1
                ],
                "metallicFactor" : 0,
                "roughnessFactor" : 0.6259841918945312
            }
        }
    ],
    "meshes" : [
        {
            "name" : "Obj3d66-1687609-225-331",
            "primitives" : [
                {
                    "attributes" : {
                        "POSITION" : 0,
                        "NORMAL" : 1,
                        "TEXCOORD_0" : 2,
                        "COLOR_0" : 3
                    },
                    "indices" : 4,
                    "material" : 0
                },
                {
                    "attributes" : {
                        "POSITION" : 5,
                        "NORMAL" : 6,
                        "TEXCOORD_0" : 7,
                        "COLOR_0" : 8
                    },
                    "indices" : 9,
                    "material" : 1
                },
                {
                    "attributes" : {
                        "POSITION" : 10,
                        "NORMAL" : 11,
                        "TEXCOORD_0" : 12,
                        "COLOR_0" : 13
                    },
                    "indices" : 14,
                    "material" : 2
                },
                {
                    "attributes" : {
                        "POSITION" : 15,
                        "NORMAL" : 16,
                        "TEXCOORD_0" : 17,
                        "COLOR_0" : 18
                    },
                    "indices" : 19,
                    "material" : 3
                }
            ]
        }
    ],
    "accessors" : [
        {
            "bufferView" : 0,
            "componentType" : 5126,
            "count" : 194,
            "max" : [
                0.07828053086996078,
                0.1851813644170761,
                0.008321871981024742
            ],
            "min" : [
                -0.04439679533243179,
                0.06584062427282333,
                -0.10063179582357407
            ],
            "type" : "VEC3"
        },
        {
            "bufferView" : 1,
            "componentType" : 5126,
            "count" : 194,
            "type" : "VEC3"
        },
        {
            "bufferView" : 2,
            "componentType" : 5126,
            "count" : 194,
            "type" : "VEC2"
        },
        {
            "bufferView" : 3,
            "componentType" : 5123,
            "count" : 194,
            "normalized" : true,
            "type" : "VEC4"
        },
        {
            "bufferView" : 4,
            "componentType" : 5123,
            "count" : 768,
            "type" : "SCALAR"
        },
        {
            "bufferView" : 5,
            "componentType" : 5126,
            "count" : 239,
            "max" : [
                -0.02624088153243065,
                0.24650220572948456,
                0.14375412464141846
            ],
            "min" : [
                -0.1312609165906906,
                0.20080702006816864,
                0.01741080917418003
            ],
            "type" : "VEC3"
        },
        {
            "bufferView" : 6,
            "componentType" : 5126,
            "count" : 239,
            "type" : "VEC3"
        },
        {
            "bufferView" : 7,
            "componentType" : 5126,
            "count" : 239,
            "type" : "VEC2"
        },
        {
            "bufferView" : 8,
            "componentType" : 5123,
            "count" : 239,
            "normalized" : true,
            "type" : "VEC4"
        },
        {
            "bufferView" : 9,
            "componentType" : 5123,
            "count" : 1026,
            "type" : "SCALAR"
        },
        {
            "bufferView" : 10,
            "componentType" : 5126,
            "count" : 573,
            "max" : [
                0.035091154277324677,
                0.20165622234344482,
                0.13433736562728882
            ],
            "min" : [
                -0.13353711366653442,
                0.08249013125896454,
                -0.050896286964416504
            ],
            "type" : "VEC3"
        },
        {
            "bufferView" : 11,
            "componentType" : 5126,
            "count" : 573,
            "type" : "VEC3"
        },
        {
            "bufferView" : 12,
            "componentType" : 5126,
            "count" : 573,
            "type" : "VEC2"
        },
        {
            "bufferView" : 13,
            "componentType" : 5123,
            "count" : 573,
            "normalized" : true,
            "type" : "VEC4"
        },
        {
            "bufferView" : 14,
            "componentType" : 5123,
            "count" : 2556,
            "type" : "SCALAR"
        },
        {
            "bufferView" : 15,
            "componentType" : 5126,
            "count" : 615,
            "max" : [
                0.13353711366653442,
                0.25105226039886475,
                0.06395936757326126
            ],
            "min" : [
                -0.0834650993347168,
                4.901162142800786e-09,
                -0.14375421404838562
            ],
            "type" : "VEC3"
        },
        {
            "bufferView" : 16,
            "componentType" : 5126,
            "count" : 615,
            "type" : "VEC3"
        },
        {
            "bufferView" : 17,
            "componentType" : 5126,
            "count" : 615,
            "type" : "VEC2"
        },
        {
            "bufferView" : 18,
            "componentType" : 5123,
            "count" : 615,
            "normalized" : true,
            "type" : "VEC4"
        },
        {
            "bufferView" : 19,
            "componentType" : 5123,
            "count" : 2496,
            "type" : "SCALAR"
        }
    ],
    "bufferViews" : [
        {
            "buffer" : 0,
            "byteLength" : 2328,
            "byteOffset" : 0
        },
        {
            "buffer" : 0,
            "byteLength" : 2328,
            "byteOffset" : 2328
        },
        {
            "buffer" : 0,
            "byteLength" : 1552,
            "byteOffset" : 4656
        },
        {
            "buffer" : 0,
            "byteLength" : 1552,
            "byteOffset" : 6208
        },
        {
            "buffer" : 0,
            "byteLength" : 1536,
            "byteOffset" : 7760
        },
        {
            "buffer" : 0,
            "byteLength" : 2868,
            "byteOffset" : 9296
        },
        {
            "buffer" : 0,
            "byteLength" : 2868,
            "byteOffset" : 12164
        },
        {
            "buffer" : 0,
            "byteLength" : 1912,
            "byteOffset" : 15032
        },
        {
            "buffer" : 0,
            "byteLength" : 1912,
            "byteOffset" : 16944
        },
        {
            "buffer" : 0,
            "byteLength" : 2052,
            "byteOffset" : 18856
        },
        {
            "buffer" : 0,
            "byteLength" : 6876,
            "byteOffset" : 20908
        },
        {
            "buffer" : 0,
            "byteLength" : 6876,
            "byteOffset" : 27784
        },
        {
            "buffer" : 0,
            "byteLength" : 4584,
            "byteOffset" : 34660
        },
        {
            "buffer" : 0,
            "byteLength" : 4584,
            "byteOffset" : 39244
        },
        {
            "buffer" : 0,
            "byteLength" : 5112,
            "byteOffset" : 43828
        },
        {
            "buffer" : 0,
            "byteLength" : 7380,
            "byteOffset" : 48940
        },
        {
            "buffer" : 0,
            "byteLength" : 7380,
            "byteOffset" : 56320
        },
        {
            "buffer" : 0,
            "byteLength" : 4920,
            "byteOffset" : 63700
        },
        {
            "buffer" : 0,
            "byteLength" : 4920,
            "byteOffset" : 68620
        },
        {
            "buffer" : 0,
            "byteLength" : 4992,
            "byteOffset" : 73540
        }
    ],
    "buffers" : [
        {
            "byteLength" : 78532,
            "uri" : "data:application/octet-stream;base64,"
        }
    ]
}
